# xmcd
#
# Track frame offsets:
#	150
#	19258
#	29853
#	43300
#	56265
#	72770
#	84588
#	96695
#	110258
#	121495
#	139663
#	153123
#	165473
#	179275
#
# Disc length: 2578 seconds
#
# Revision: 1
# Processed by: cddbd v1.5.1PL0 Copyright (c) Steve Scherf et al.
# Submitted via: CDex 1.50Beta5
#
DISCID=be0a100e
DTITLE=さまざまなアーティスト - Pops Ballad
DYEAR=1900
DGENRE=
TTITLE0=I can't stop loving you
TTITLE1=What a wonderful world
TTITLE2=Oh,pretty woman
TTITLE3=When a man loves a woman
TTITLE4=Unchained melody
TTITLE5=I only want to be with you
TTITLE6=California dreamin
TTITLE7=Stand by me
TTITLE8=Save the last dance for me
TTITLE9=A whiter shade of pale
TTITLE10=San francisco
TTITLE11=Seven daffodils
TTITLE12=Can't help falling in love
TTITLE13=Scarbough fair/Canticle
EXTD=
EXTT0=
EXTT1=
EXTT2=
EXTT3=
EXTT4=
EXTT5=
EXTT6=
EXTT7=
EXTT8=
EXTT9=
EXTT10=
EXTT11=
EXTT12=
EXTT13=
PLAYORDER=
